<?xml version="1.0" encoding="UTF-8"?>
<svg id="Camada_2" data-name="Camada 2" xmlns="http://www.w3.org/2000/svg" viewBox="0 0 399.15 83.81">
  <defs>
    <style>
      .cls-1 {
        fill: #ffd900;
      }

      .cls-1, .cls-2 {
        stroke-width: 0px;
      }

      .cls-2 {
        fill: #051e3a;
      }
    </style>
  </defs>
  <g id="Camada_1-2" data-name="Camada 1">
    <g>
      <g>
        <path class="cls-2" d="M127.12,60.53c-2.47.66-7.49,1.73-11.35,1.73-9.46,0-15.88-3.54-15.88-14.73v-15.06c0-8.97,3.13-15.71,14.65-15.71,4.36,0,9.3,1.07,14.48,3.62l1.48-2.88h10.04v49.86c0,8.8-5.43,14.81-19.09,14.81-7.4,0-16.54-1.4-20.73-2.72l3.13-10.37c3.78.99,12.09,2.22,16.62,2.22,5.27,0,6.66-1.97,6.66-5.02v-5.76ZM127.12,29.68c-3.62-1.32-7.16-2.3-9.38-2.3-3.21,0-4.44,1.48-4.44,5.1v14.4c0,2.96.82,4.85,4.69,4.85,2.88,0,6.75-.82,9.13-1.56v-20.49Z"/>
        <path class="cls-2" d="M146.29,82.09V20.21h3.78l1.15,3.62c6.09-2.63,11.44-4.36,16.46-4.36,9.54,0,12.18,5.43,12.18,13.25v16.7c0,9.71-5.18,12.84-12.67,12.84-5.18,0-11.44-1.4-15.71-2.8v21.31l-5.18,1.32ZM174.68,34.12c0-6.83-1.56-10.2-8.23-10.2-3.37,0-10.28,2.22-14.97,4.11v26.82c3.04,1.23,9.38,3.04,13.99,3.04,7.65,0,9.22-3.46,9.22-9.3v-14.48Z"/>
        <path class="cls-2" d="M182.67,31.82c0-9.87,5.35-15.63,17.52-15.63h2.8c12.18,0,17.52,5.76,17.52,15.63v14.65c0,9.87-5.35,15.63-17.52,15.63h-2.8c-12.18,0-17.52-5.76-17.52-15.63v-14.65ZM215.33,46.13v-13.99c0-7.73-3.29-11.68-12.59-11.68h-2.3c-9.3,0-12.59,3.95-12.59,11.68v13.99c0,7.73,3.29,11.68,12.59,11.68h2.3c9.3,0,12.59-3.95,12.59-11.68Z"/>
        <path class="cls-2" d="M224.19,9.02V2.61h5.84v5.02l-5.84,1.4ZM224.52,61.52V20.21h5.18v41.3h-5.18Z"/>
        <path class="cls-2" d="M260.43,61.52v-26.66c0-6.09-.74-10.86-7.98-10.86-4.61,0-11.03,2.63-13.66,3.78v33.73h-5.18V20.21h3.7l1.07,3.46c3.21-1.48,8.97-4.2,15.3-4.2,8.72,0,11.93,5.76,11.93,13.16v28.88h-5.18Z"/>
        <path class="cls-2" d="M295.65,60.53c-2.96.91-7.82,1.73-11.85,1.73-6.99,0-9.87-2.96-9.87-10.12v-27.73h-8.23v-4.2h8.23v-11.35l5.18-1.32v12.67h15.96v4.2h-15.96v26.49c0,4.44.41,6.91,5.18,6.91,2.63,0,7.57-.58,10.37-1.32l.99,4.03Z"/>
        <path class="cls-2" d="M329.55,59.3c-3.46,1.23-10.37,2.96-18.1,2.96-10.04,0-15.14-3.54-15.14-13.9v-13.58c0-9.63,4.61-15.3,15.06-15.3h3.62c10.45,0,14.56,5.68,14.56,15.3v6.91h-28.06v6.25c0,7.4,2.39,9.87,10.28,9.87,6.09,0,12.01-1.23,16.46-2.71l1.32,4.2ZM324.28,33.63c0-6.75-2.47-9.79-10.28-9.79h-1.81c-7.65,0-10.7,3.04-10.7,9.79v3.87h22.79v-3.87Z"/>
        <path class="cls-2" d="M337.66,20.21v26.66c0,6.09.74,10.86,7.98,10.86,4.44,0,10.53-2.63,13.08-3.78V20.21h5.18v41.3h-3.7l-1.07-3.46c-3.04,1.32-8.64,4.2-14.73,4.2-8.72,0-11.93-5.76-11.93-13.16v-28.88h5.18Z"/>
        <path class="cls-2" d="M393.97,61.52v-26.66c0-6.09-.74-10.86-7.98-10.86-4.61,0-11.03,2.63-13.66,3.78v33.73h-5.18V20.21h3.7l1.07,3.46c3.21-1.48,8.97-4.2,15.3-4.2,8.72,0,11.93,5.76,11.93,13.16v28.88h-5.18Z"/>
      </g>
      <g>
        <rect class="cls-2" x="59.72" y="36.05" width="13.04" height="13.04"/>
        <path class="cls-1" d="M83.83,23.52v-10.56L70.87,0H16.85L0,16.85v50.31l16.65,16.65h50.31l16.85-16.85v-17.94h-11.07v13.36l-10.37,10.37H21.23l-10.16-10.16V21.44l10.37-10.37h51.09v12.45h11.3Z"/>
      </g>
    </g>
  </g>
</svg>